<?xml version="1.0" standalone="no"?>
<!DOCTYPE svg PUBLIC "-//W3C//DTD SVG 20010904//EN"
 "http://www.w3.org/TR/2001/REC-SVG-20010904/DTD/svg10.dtd">
<svg version="1.0" xmlns="http://www.w3.org/2000/svg"
 width="1000.000000pt" height="1000.000000pt" viewBox="0 0 1000.000000 1000.000000"
 preserveAspectRatio="xMidYMid meet">
<metadata>
Created by potrace 1.14, written by Peter Selinger 2001-2017
</metadata>
<g transform="translate(0.000000,1000.000000) scale(0.100000,-0.100000)"
fill="#000000" stroke="none">
<path d="M4935 9989 c-31 -17 -4904 -4891 -4921 -4921 -18 -35 -18 -101 0
-136 18 -33 4892 -4905 4923 -4921 30 -15 99 -14 131 3 15 8 1130 1118 2477
2465 l2450 2451 0 70 0 70 -2450 2451 c-1347 1347 -2462 2457 -2477 2465 -32
16 -104 18 -133 3z m872 -1843 c403 -698 731 -1271 729 -1273 -1 -2 -515 -141
-1142 -308 -626 -168 -1153 -309 -1171 -314 -23 -7 -30 -6 -28 2 7 20 855
3188 855 3195 0 4 6 -2 12 -13 7 -11 342 -591 745 -1289z m-1532 -405 c-233
-871 -426 -1585 -428 -1588 -4 -4 -3166 -853 -3177 -853 -3 0 902 907 2010
2015 1108 1108 2015 2013 2017 2011 1 -1 -188 -715 -422 -1585z m3045 -427
l1595 -1595 -120 69 c-473 272 -1774 1023 -1833 1058 l-73 42 -456 789 c-250
433 -513 888 -584 1011 -70 122 -127 222 -126 222 1 0 720 -718 1597 -1596z
m-771 -786 c-4 -18 -152 -570 -328 -1227 -176 -656 -322 -1195 -324 -1198 -3
-2 -542 -148 -1198 -324 -657 -176 -1208 -324 -1225 -328 -32 -9 -32 -9 -23
23 5 17 152 568 328 1225 176 656 322 1195 324 1198 3 2 555 152 1228 333 673
181 1225 329 1226 329 1 1 -3 -14 -8 -31z m1001 -378 c349 -201 919 -530 1267
-731 347 -200 630 -365 629 -366 -1 -1 -717 -194 -1592 -428 -874 -234 -1594
-427 -1601 -430 -7 -2 -10 1 -8 8 3 9 575 2145 616 2300 9 34 12 36 32 26 12
-7 308 -177 657 -379z m-3801 -372 c-4 -18 -146 -546 -314 -1172 -167 -626
-306 -1140 -308 -1142 -1 -2 -581 331 -1289 739 -707 408 -1280 744 -1274 746
6 3 726 197 1601 432 875 235 1591 428 1592 428 1 1 -3 -14 -8 -31z m3571
-3093 c-1108 -1108 -2015 -2013 -2017 -2011 -4 3 844 3166 850 3173 5 4 3154
851 3172 852 5 1 -897 -906 -2005 -2014z m-5235 1020 c523 -302 967 -558 988
-569 34 -19 79 -94 479 -786 673 -1166 727 -1260 725 -1260 -1 0 -720 718
-1597 1597 -877 878 -1584 1590 -1570 1581 14 -8 453 -262 975 -563z m3720 43
c-3 -7 -196 -728 -430 -1603 -234 -874 -427 -1590 -428 -1591 -3 -3 -1486
2570 -1483 2573 2 2 529 145 1172 317 643 173 1170 315 1171 315 1 1 0 -5 -2
-11z"/>
</g>
</svg>
